<?xml version="1.0" encoding="UTF-8" standalone="no"?>
<svg
   xmlns:dc="http://purl.org/dc/elements/1.1/"
   xmlns:cc="http://creativecommons.org/ns#"
   xmlns:rdf="http://www.w3.org/1999/02/22-rdf-syntax-ns#"
   xmlns:svg="http://www.w3.org/2000/svg"
   xmlns="http://www.w3.org/2000/svg"
   xmlns:sodipodi="http://sodipodi.sourceforge.net/DTD/sodipodi-0.dtd"
   xmlns:inkscape="http://www.inkscape.org/namespaces/inkscape"
   width="24"
   height="24"
   viewBox="0 0 24 24"
   fill="none"
   stroke="currentColor"
   stroke-width="2"
   stroke-linecap="round"
   stroke-linejoin="round"
   class="feather feather-chevron-up"
   version="1.1"
   id="svg4"
   sodipodi:docname="link.svg"
   inkscape:version="1.0.2 (e86c870879, 2021-01-15)">
  <metadata
     id="metadata10">
    <rdf:RDF>
      <cc:Work
         rdf:about="">
        <dc:format>image/svg+xml</dc:format>
        <dc:type
           rdf:resource="http://purl.org/dc/dcmitype/StillImage" />
      </cc:Work>
    </rdf:RDF>
  </metadata>
  <defs
     id="defs8" />
  <sodipodi:namedview
     pagecolor="#ffffff"
     bordercolor="#666666"
     borderopacity="1"
     objecttolerance="10"
     gridtolerance="10"
     guidetolerance="10"
     inkscape:pageopacity="0"
     inkscape:pageshadow="2"
     inkscape:window-width="1920"
     inkscape:window-height="1019"
     id="namedview6"
     showgrid="false"
     inkscape:zoom="29.791667"
     inkscape:cx="9.6802759"
     inkscape:cy="11.318464"
     inkscape:window-x="0"
     inkscape:window-y="0"
     inkscape:window-maximized="1"
     inkscape:current-layer="layer5"
     inkscape:document-rotation="0" />
  <path
     style="fill:#ffffff;fill-opacity:1;stroke:#000000;stroke-width:0.420125;stroke-linecap:butt;stroke-linejoin:round;stroke-miterlimit:4;stroke-dasharray:none;stroke-opacity:1"
     d="M 8.5015292,14.550437 4.1930104,7.2936486 3.3079485,5.8029496 C 3.024985,5.3263573 2.9736395,4.6913179 3.1716506,4.2341231 3.3430791,3.8383058 3.7885723,3.5501973 4.2163809,3.5834644 c 0.4785414,0.037212 0.9922098,0.4553058 1.2657793,0.917122 l 3.308897,5.5857786"
     id="path838"
     sodipodi:nodetypes="ccssssc" />
  <path
     style="fill:#ffffff;fill-opacity:1;stroke:#000000;stroke-width:0.420125;stroke-linecap:round;stroke-linejoin:bevel;stroke-miterlimit:4;stroke-dasharray:none;stroke-opacity:1"
     d="m 7.6743372,8.1827706 c 0,0 0.01366,-1.007555 0.259646,-1.37146 0.300411,-0.444413 0.813229,-0.77448 1.351502,-0.793569 0.355754,-0.01262 1.0448558,0.455751 1.0448558,0.455751 0,0 0.279971,-0.625134 0.506902,-0.856233 0.36239,-0.3690493 0.78375,-0.7998996 1.314629,-0.7958022 0.201316,0.00155 0.571047,0.3100319 0.571047,0.3100319 0,0 0.18536,-0.5536774 0.374031,-0.7454948 0.270387,-0.2748965 0.63084,-0.4949231 1.023034,-0.5166789 0.232343,-0.012891 0.698539,0.2337131 0.698539,0.2337131 0,0 2.568155,3.1525869 3.409117,5.5056849 0.574152,1.6065364 0.949075,3.3541184 -0.379268,4.6921974 -1.355936,1.365872 -4.182369,3.038728 -5.468695,3.36479 -1.209774,0.306664 -2.8059428,-0.02176 -3.9214578,-0.804163 -1.9117974,-1.340905 -3.3443724,-4.156087 -3.3002585,-4.979195 0.052,-0.970256 -0.081648,-3.1213984 -0.081648,-3.1213984"
     id="path840"
     sodipodi:nodetypes="csscsscsscsssssc" />
  <g
     inkscape:groupmode="layer"
     id="layer4"
     inkscape:label="Layer 4">
    <path
       style="fill:none;stroke:#000000;stroke-width:0.420125;stroke-linecap:round;stroke-linejoin:miter;stroke-miterlimit:4;stroke-dasharray:none;stroke-opacity:1"
       d="m 10.330342,6.4734936 c 0,0 0.562442,1.13246 1.155449,1.780401"
       id="path899"
       sodipodi:nodetypes="cc" />
    <path
       style="fill:none;stroke:#000000;stroke-width:0.420125;stroke-linecap:round;stroke-linejoin:miter;stroke-miterlimit:4;stroke-dasharray:none;stroke-opacity:1"
       d="m 12.722921,5.1314933 c 0,0 0.434387,0.8910003 1.126186,1.7361833"
       id="path901"
       sodipodi:nodetypes="cc" />
  </g>
  <g
     inkscape:groupmode="layer"
     id="layer1"
     inkscape:label="Layer 1">
    <path
       style="fill:none;stroke:#000000;stroke-width:0.420125;stroke-linecap:round;stroke-linejoin:miter;stroke-miterlimit:4;stroke-dasharray:none;stroke-opacity:1"
       d="m 5.0763125,8.7609446 c 0,0 0.6456045,2.9697544 2.3947067,4.3646024"
       id="path841"
       sodipodi:nodetypes="cc" />
    <path
       style="fill:none;stroke:#000000;stroke-width:0.420125;stroke-linecap:round;stroke-linejoin:miter;stroke-miterlimit:4;stroke-dasharray:none;stroke-opacity:1"
       d="m 7.6743372,8.1827706 c 0,0 0.58513,1.151776 1.116719,1.9035944"
       id="path843"
       sodipodi:nodetypes="cc" />
  </g>
  <g
     inkscape:groupmode="layer"
     id="layer3"
     inkscape:label="Layer 3" />
  <g
     inkscape:groupmode="layer"
     id="layer2"
     inkscape:label="Layer 2" />
  <g
     inkscape:groupmode="layer"
     id="layer5"
     inkscape:label="Layer 5">
    <path
       style="fill:none;stroke:#0baa00;stroke-width:2;stroke-linecap:round;stroke-linejoin:round;stroke-miterlimit:4;stroke-dasharray:none;stroke-opacity:1"
       d="M 8.9606228,16.765227 13.733104,21.540775 21.627492,8.5625202"
       id="path8931"
       sodipodi:nodetypes="ccc" />
  </g>
</svg>
