<?xml version="1.0" encoding="UTF-8" standalone="no"?>
<svg
   xmlns:dc="http://purl.org/dc/elements/1.1/"
   xmlns:cc="http://creativecommons.org/ns#"
   xmlns:rdf="http://www.w3.org/1999/02/22-rdf-syntax-ns#"
   xmlns:svg="http://www.w3.org/2000/svg"
   xmlns="http://www.w3.org/2000/svg"
   xmlns:sodipodi="http://sodipodi.sourceforge.net/DTD/sodipodi-0.dtd"
   xmlns:inkscape="http://www.inkscape.org/namespaces/inkscape"
   width="24"
   height="24"
   viewBox="0 0 24 24"
   fill="none"
   stroke="currentColor"
   stroke-width="2"
   stroke-linecap="round"
   stroke-linejoin="round"
   class="feather feather-chevron-up"
   version="1.1"
   id="svg4"
   sodipodi:docname="mark.svg"
   inkscape:export-filename="/home/nick/Projects/WorldsOrganizer/src/main/resources/icons/mark.png"
   inkscape:export-xdpi="1024"
   inkscape:export-ydpi="1024"
   inkscape:version="1.0.2 (e86c870879, 2021-01-15)">
  <sodipodi:namedview
     pagecolor="#ffffff"
     bordercolor="#666666"
     borderopacity="1"
     objecttolerance="10"
     gridtolerance="10"
     guidetolerance="10"
     inkscape:pageopacity="0"
     inkscape:pageshadow="2"
     inkscape:window-width="1920"
     inkscape:window-height="1019"
     id="namedview4271"
     showgrid="false"
     inkscape:zoom="32"
     inkscape:cx="11.227025"
     inkscape:cy="11.887348"
     inkscape:window-x="0"
     inkscape:window-y="0"
     inkscape:window-maximized="1"
     inkscape:current-layer="layer2" />
  <metadata
     id="metadata10">
    <rdf:RDF>
      <cc:Work
         rdf:about="">
        <dc:format>image/svg+xml</dc:format>
        <dc:type
           rdf:resource="http://purl.org/dc/dcmitype/StillImage" />
        <dc:title />
      </cc:Work>
    </rdf:RDF>
  </metadata>
  <defs
     id="defs8">
    <clipPath
       clipPathUnits="userSpaceOnUse"
       id="clipPath1458">
      <path
         style="fill:#3eb043;fill-opacity:1;stroke:#000000;stroke-width:1px;stroke-linecap:butt;stroke-linejoin:miter;stroke-opacity:1"
         d="m 6.9575427,2.0052179 c 0.2871143,0.1583037 0.590583,0.3133531 0.7443721,0.6209314 0.026946,0.053893 0.037871,0.1151611 0.067133,0.1678322 0.027169,0.048904 0.077978,0.083143 0.1006993,0.1342657 0.023171,0.052135 0.022378,0.1118881 0.033566,0.1678322 0.022378,0.055944 0.041774,0.1131747 0.067133,0.1678321 C 8.0924419,3.526858 8.1991605,3.788294 8.3098536,4.0561257 8.412878,4.3054021 8.4959986,4.5618688 8.5954264,4.8101903 8.7055338,5.0851841 8.8462868,5.3331678 8.9342028,5.6188947 9.0023537,5.8403851 9.0472492,6.2582088 9.0684685,6.491622 9.1128009,6.979278 9.0241659,7.4709239 8.9601521,7.9520107 8.9531229,8.0048375 8.9123911,8.373624 8.8869836,8.4599274 8.8162272,8.7002708 8.7231093,8.9803998 8.6330699,9.2154303 8.605846,9.286493 8.554756,9.3472792 8.530623,9.4194502 8.5086663,9.4851127 8.5162328,9.5579925 8.4963456,9.6243112 8.4962358,9.6246774 8.3619491,9.8929592 8.361369,9.8942645 8.2405225,10.166169 8.1707025,10.472432 8.0256965,10.733443 c -0.091094,0.163969 -0.5478947,0.920619 -0.4449704,1.126471 0.1119299,0.223863 0.2738324,0.421278 0.4087898,0.630337 0.1078109,0.167008 0.1930403,0.347644 0.2954415,0.518022 0.1615966,0.26887 0.3425847,0.53177 0.4971721,0.804314 0.2884989,0.508636 0.5744625,1.045069 0.825293,1.57506 0.1991151,0.420719 0.3295993,0.874578 0.5128325,1.302121 0.07989,0.186413 0.199479,0.364339 0.276159,0.549822 0.09767,0.236262 0.04507,0.208551 0.105692,0.419831 0.03988,0.13897 0.11009,0.291309 0.134266,0.436363 0.01968,0.118073 -0.01186,0.250638 0,0.369231 0.04492,0.449213 0.100214,1.329042 -0.0018,1.742629 -0.04194,0.169997 -0.129143,0.334024 -0.168543,0.506342 -0.104518,0.457125 -0.178322,0.908478 -0.219017,1.376124 -0.01851,0.212716 -0.140202,0.929138 0.02273,1.173534 0.02633,0.0395 0.06981,0.06466 0.1007,0.1007 0.664228,0.774933 0.974522,1.065143 1.933249,1.544881 0.223317,0.111746 0.445512,0.228548 0.680103,0.314132 0.19064,0.06955 0.39263,0.10297 0.590199,0.149306 1.0409,0.244119 2.058993,0.453221 3.125717,0.544307 0.842531,0.07194 2.654798,0.200007 3.44566,-0.160328 0.342845,-0.156207 0.765061,-0.616617 1.038917,-0.856575 0.186372,-0.163302 0.419929,-0.299695 0.553588,-0.51365 0.171297,-0.274204 0.120401,-0.666291 0.138125,-0.971082 0.01624,-0.279346 0.05784,-0.260097 0.03755,-0.506296 -0.02609,-0.31666 -0.143791,-0.533354 -0.283647,-0.81182 -0.08822,-0.175663 -0.125037,-0.373503 -0.235862,-0.539743 -0.09782,-0.146738 -0.2325,-0.265578 -0.336701,-0.404512 -0.144869,-0.193159 -0.06558,-0.156126 -0.203173,-0.37189 -0.260859,-0.409051 -0.582616,-0.798176 -0.90455,-1.157493 -0.112197,-0.125224 -0.175549,-0.277787 -0.272588,-0.408728 -0.194737,-0.262771 -0.414441,-0.508574 -0.652831,-0.732498 -1.689341,-1.58683 -0.01002,0.177596 -1.153549,-1.137206 -0.07445,-0.08559 -0.175499,-0.147771 -0.240642,-0.240642 -0.05538,-0.07895 -0.07355,-0.178383 -0.114516,-0.265688 -0.192188,-0.409567 -0.351962,-0.767683 -0.352052,-1.226863 -1.51e-4,-0.774593 0.512205,-1.312964 1.009013,-1.844041 0.279904,-0.299211 0.478486,-0.49597 0.800534,-0.761906 0.05019,-0.04145 0.372531,-0.254802 0.441408,-0.331921 0.04368,-0.0489 0.06192,-0.116207 0.101414,-0.168547 0.07091,-0.09398 0.160788,-0.172972 0.228799,-0.269074 0.0976,-0.137912 0.368218,-0.613014 0.368218,-0.802573 0,-0.406128 -0.264712,-0.912544 -0.562889,-1.18396 -0.08041,-0.07319 -0.183986,-0.117584 -0.265307,-0.189754 -0.05608,-0.04977 -0.08141,-0.1299733 -0.141397,-0.1749648 -0.03227,-0.024205 -0.07445,-0.036502 -0.100699,-0.067133 C 18.818337,9.556525 18.688527,9.2049673 18.502031,8.9177494 18.258104,8.5420828 17.960113,8.1950515 17.722065,7.8170628 17.544258,7.5347292 17.468308,7.2136168 17.295711,6.927371 17.008177,6.4505062 16.656988,6.0076327 16.392851,5.5167449 16.348296,5.4339419 16.325603,5.3406093 16.281496,5.2575669 16.103902,4.9232009 15.990757,4.7460178 15.904382,4.3677092 15.841118,4.090622 15.870816,3.794769 15.870816,3.512433 c 0,-0.6962107 0.276781,-0.6966554 0.677294,-1.1804735 0.446915,-0.5398704 -0.0903,0.013709 0.430824,-0.5466054 0.168513,-0.181186 0.365627,-0.3355295 0.524883,-0.5249037 0.07346,-0.087352 0.121433,-0.1947128 0.198029,-0.27932777 0.04952,-0.0547021 0.320294,-0.26096815 0.395532,-0.32468876 0.367014,-0.31083051 0.733213,-0.61583273 1.108772,-0.91591865 0.16541,-0.1321687 0.968292,-0.80214902 0.629744,-1.09678282 -0.144253,-0.1255407 -0.325266,-0.2026874 -0.508942,-0.2482925 -0.996599,-0.2474463 -1.716354,-0.079041 -2.686981,0.1839982 -0.380922,0.1032297 -2.250182,0.61556861 -2.48823,0.69859984 -0.502236,0.17517929 -0.979337,0.4162185 -1.476923,0.60419579 C 12.16505,0.07481256 11.641483,0.22926096 11.130762,0.41929667 10.678994,0.58739633 10.235668,0.77736795 9.7881043,0.9563596 9.3453036,1.1334462 8.8929874,1.288369 8.4596672,1.4875314 8.0331858,1.6835506 7.6265808,1.9202333 7.2120342,2.1403718 7.0409153,2.2312418 6.8146874,2.3957417 6.7868259,2.3718483 6.7705467,2.3578877 6.8235735,2.0602357 6.832402,2.0550247 6.871065,2.0322037 6.915829,2.0218197 6.9575427,2.0052179 Z"
         id="path1460" />
    </clipPath>
  </defs>
  <g
     inkscape:groupmode="layer"
     id="layer1"
     inkscape:label="Layer 1">
    <path
       style="fill:#74d1ec;fill-opacity:1;stroke:#10406b;stroke-width:0.1;stroke-linecap:butt;stroke-linejoin:round;stroke-miterlimit:4;stroke-dasharray:none;stroke-opacity:1"
       d="M 9.390535,2.9846855 C 10.483788,2.9291074 11.760183,3.43256 13.045778,2.8295238 12.669909,1.2784325 18.498971,2.4370086 18.498971,2.4370086 l 1.214982,6.3959903 c 0,0 -5.345635,0.02616 -5.473772,0.389021 -0.08979,0.2542809 0.411761,-0.04166 0.116218,0.3584059 -0.368808,0.4992212 -3.964672,0.4560712 -3.964672,0.4560712 z"
       id="path8833"
       sodipodi:nodetypes="ccccsscc" />
    <path
       style="fill:none;stroke:#10406b;stroke-width:0.1;stroke-linecap:butt;stroke-linejoin:miter;stroke-miterlimit:4;stroke-dasharray:none;stroke-opacity:1"
       d="m 13.025153,2.6310176 1.19166,6.6269513"
       id="path8835" />
  </g>
  <g
     inkscape:groupmode="layer"
     id="layer2"
     inkscape:label="Layer 2">
    <path
       style="fill:none;stroke:#8f8f8f;stroke-width:1;stroke-linecap:round;stroke-linejoin:miter;stroke-miterlimit:4;stroke-dasharray:none;stroke-opacity:1"
       d="m 8.8530053,2.330311 1.146356,7.903463 1.8301407,12.396328"
       id="path8823"
       sodipodi:nodetypes="ccc" />
  </g>
</svg>
